<svg height="480pt" viewBox="-88 0 480 480.06713" width="480pt" xmlns="http://www.w3.org/2000/svg">
    <path
        d="m.0351562 184.066406v288c0 4.417969 3.5820318 8 7.9999998 8h288c4.417969 0 8-3.582031 8-8v-288c0-4.417968-3.582031-8-8-8h-25.378906c21.664062-53.464844 4.886719-114.816406-40.972656-149.816406-45.855469-35-109.460938-35-155.316406 0-45.859376 35-62.636719 96.351562-40.972657 149.816406h-25.359375c-4.417968 0-7.9999998 3.582032-7.9999998 8zm39.9999998-56c-.152344-46.078125 27.929688-87.546875 70.773438-104.507812 42.84375-16.957032 91.699218-5.949219 123.128906 27.746094 31.429688 33.699218 39.011719 83.203124 19.113281 124.761718h-17.914062c23.332031-40.34375 14.316406-91.617187-21.378907-121.585937-35.695312-29.964844-87.753906-29.964844-123.449218 0-35.695313 29.96875-44.710938 81.242187-21.378906 121.585937h-17.878907c-7.183593-14.984375-10.949219-31.378906-11.015625-48zm115.0625 88.609375c-2.992187-1.238281-6.433594-.554687-8.71875 1.734375l-34.34375 34.34375v-60.6875h80v72h-32v-40c0-3.234375-1.949218-6.152344-4.9375-7.390625zm-66.976562-40.609375c-8.757813-11.660156-14.167969-25.488281-15.648438-40h15.5625v-16h-15.59375c3.851563-37.828125 33.761719-67.738281 71.59375-71.589844v15.589844h16v-15.589844c37.828125 3.851563 67.738282 33.761719 71.589844 71.589844h-15.589844v16h15.558594c-1.476562 14.511719-6.886719 28.339844-15.648438 40zm-72.085938 16h80v80c0 3.234375 1.949219 6.152344 4.9375 7.390625 2.988282 1.238281 6.429688.554688 8.71875-1.734375l34.34375-34.34375v28.6875c0 4.417969 3.582032 8 8 8h48c4.417969 0 8-3.582031 8-8v-80h80v272h-272zm0 0" />
    <path
        d="m200.035156 312.066406h-96c-4.417968 0-8 3.582032-8 8v32c0 4.417969 3.582032 8 8 8h96c4.417969 0 8-3.582031 8-8v-32c0-4.417968-3.582031-8-8-8zm-8 32h-80v-16h80zm0 0" />
    <path d="m160.035156 80.066406h-16v48c0 4.417969 3.582032 8 8 8h32v-16h-24zm0 0" />
</svg>